name D:\school\WTK\thesis\model\3dpredictsim\Results\Batchsim_tmt_linear\Pog_s1_tmt_bCst_d05_k800_ig24_act.mot
datacolumns 128
datarows 4
range 1.84591864 1.88283701
endheader
time	pelvis_tilt	pelvis_list	pelvis_rotation	pelvis_tx	pelvis_ty	pelvis_tz	hip_flexion_l	hip_adduction_l	hip_rotation_l	hip_flexion_r	hip_adduction_r	hip_rotation_r	knee_angle_l	knee_angle_r	ankle_angle_l	ankle_angle_r	subtalar_angle_l	subtalar_angle_r	tmt_angle_l	tmt_angle_r	mtp_angle_l	mtp_angle_r	lumbar_extension	lumbar_bending	lumbar_rotation	arm_flex_l	arm_add_l	arm_rot_l	arm_flex_r	arm_add_r	arm_rot_r	elbow_flex_l	elbow_flex_r	pro_sup_l	pro_sup_r	glut_med1_l/activation	glut_med2_l/activation	glut_med3_l/activation	glut_min1_l/activation	glut_min2_l/activation	glut_min3_l/activation	semimem_l/activation	semiten_l/activation	bifemlh_l/activation	bifemsh_l/activation	sar_l/activation	add_long_l/activation	add_brev_l/activation	add_mag1_l/activation	add_mag2_l/activation	add_mag3_l/activation	tfl_l/activation	pect_l/activation	grac_l/activation	glut_max1_l/activation	glut_max2_l/activation	glut_max3_l/activation	iliacus_l/activation	psoas_l/activation	quad_fem_l/activation	gem_l/activation	peri_l/activation	rect_fem_l/activation	vas_med_l/activation	vas_int_l/activation	vas_lat_l/activation	med_gas_l/activation	lat_gas_l/activation	soleus_l/activation	tib_post_l/activation	flex_dig_l/activation	flex_hal_l/activation	tib_ant_l/activation	per_brev_l/activation	per_long_l/activation	per_tert_l/activation	ext_dig_l/activation	ext_hal_l/activation	ercspn_l/activation	intobl_l/activation	extobl_l/activation	glut_med1_r/activation	glut_med2_r/activation	glut_med3_r/activation	glut_min1_r/activation	glut_min2_r/activation	glut_min3_r/activation	semimem_r/activation	semiten_r/activation	bifemlh_r/activation	bifemsh_r/activation	sar_r/activation	add_long_r/activation	add_brev_r/activation	add_mag1_r/activation	add_mag2_r/activation	add_mag3_r/activation	tfl_r/activation	pect_r/activation	grac_r/activation	glut_max1_r/activation	glut_max2_r/activation	glut_max3_r/activation	iliacus_r/activation	psoas_r/activation	quad_fem_r/activation	gem_r/activation	peri_r/activation	rect_fem_r/activation	vas_med_r/activation	vas_int_r/activation	vas_lat_r/activation	med_gas_r/activation	lat_gas_r/activation	soleus_r/activation	tib_post_r/activation	flex_dig_r/activation	flex_hal_r/activation	tib_ant_r/activation	per_brev_r/activation	per_long_r/activation	per_tert_r/activation	ext_dig_r/activation	ext_hal_r/activation	ercspn_r/activation	intobl_r/activation	extobl_r/activation	
          1.84591864	         -2.93017627	          1.41737957	         -7.97473542	          2.30739829	          0.85685356	          0.00226568	         33.09541809	          1.11622649	         -0.00414848	        -15.89660064	         -2.25222115	          8.75925780	        -15.89422959	        -16.41147180	          9.48615238	         -8.46096257	         -0.61575157	         14.79589396	          0.02780294	          1.24577892	         -0.09066416	         29.34195375	         -0.64435362	          0.84067428	          2.98967504	        -11.44583536	        -13.52251677	          6.84443476	          3.55551080	        -13.52669119	         18.19960643	         18.02044382	         45.95990758	         86.51662706	         86.51662706	          0.05000197	          0.05000088	          0.05000334	          0.05000098	          0.05000119	          0.05000342	          0.18010418	          0.06025591	          0.13860429	          0.05113435	          0.05011620	          0.06025999	          0.09162485	          0.18818951	          0.16105375	          0.12767012	          0.05000569	          0.06023757	          0.06025926	          0.05000190	          0.05012244	          0.10526638	          0.05756283	          0.05792788	          0.15974086	          0.05000975	          0.05000443	          0.05000114	          0.09869427	          0.10610559	          0.09105139	          0.06025513	          0.06025517	          0.06025511	          0.05000070	          0.05000353	          0.05063284	          0.51093351	          0.33957469	          0.20726315	          0.09991392	          0.57351743	          0.34053855	          0.05027345	          0.12776718	          0.10938092	          0.14855310	          0.08393443	          0.08072269	          0.20472847	          0.13054131	          0.08407083	          0.05000723	          0.05000098	          0.05000094	          0.05000436	          0.08975498	          0.05000512	          0.05000088	          0.05000105	          0.05000200	          0.05000140	          0.17119620	          0.05000899	          0.05000304	          0.05001670	          0.05000765	          0.05000251	          0.38925591	          0.59539002	          0.05000107	          0.05000462	          0.06245592	          0.24627340	          0.09139775	          0.07268939	          0.07801428	          0.15084549	          0.22628625	          0.05734399	          0.15165540	          0.18153564	          0.19994100	          0.05000056	          0.34412212	          0.32970294	          0.05000056	          0.26193053	          0.05000102	          0.05000005	          0.05000011	          0.05000025	
          1.85822476	         -2.92696501	          1.36153237	         -8.16813694	          2.32725979	          0.85544963	          0.00193966	         32.39866046	          1.38325749	          0.19929278	        -16.09960056	         -2.47072572	          8.46963546	        -15.88755998	        -17.67846982	          8.86241760	        -11.34936786	         -1.00749066	         15.30602851	          0.04926285	          1.13871941	         -0.08884319	         30.84785353	         -0.37827759	          0.68884117	          3.09277431	        -12.86623736	        -13.51016447	          6.63846739	          3.06583433	        -13.59923937	         18.48082284	         17.99479516	         47.21017171	         86.51662706	         86.51662706	          0.07441889	          0.07958935	          0.05000212	          0.06025372	          0.06024487	          0.05001169	          0.14945170	          0.05000111	          0.11501477	          0.05000053	          0.05000295	          0.05000473	          0.07603125	          0.27032463	          0.19866496	          0.13810426	          0.05000294	          0.05000503	          0.05000431	          0.06025533	          0.10869702	          0.12478125	          0.05000060	          0.05000125	          0.38794619	          0.06026210	          0.07088511	          0.07261341	          0.23214152	          0.23042126	          0.20332687	          0.05000005	          0.05000011	          0.05000001	          0.05000043	          0.07260925	          0.05000189	          0.68010886	          0.35906584	          0.23568711	          0.50555746	          0.64983462	          0.44895635	          0.05000005	          0.10602191	          0.09076488	          0.12327039	          0.06964974	          0.06698810	          0.16988517	          0.10832422	          0.06976322	          0.05000906	          0.05000068	          0.05000095	          0.05000087	          0.07448017	          0.15280755	          0.13103508	          0.15337854	          0.05003255	          0.05000793	          0.14205975	          0.07753201	          0.05000928	          0.05001076	          0.05000775	          0.05000736	          0.32300676	          0.49405829	          0.07261334	          0.07260985	          0.06025844	          0.20435901	          0.07589432	          0.12675873	          0.09705627	          0.12517239	          0.18777354	          0.05000004	          0.12584447	          0.15063937	          0.16591218	          0.25755137	          0.38002556	          0.31674982	          0.47813904	          0.43035823	          0.22672173	          0.05561006	          0.07261333	          0.05579496	
          1.87053088	         -2.91792222	          1.30819704	         -8.32611703	          2.34730432	          0.85372352	          0.00163423	         31.57033666	          1.63565247	          0.46529882	        -16.09497155	         -2.64645262	          8.17204676	        -16.51152349	        -19.33683597	          8.15547931	        -13.95712837	         -1.42279748	         15.76338002	         -0.04334023	          0.92217597	         -0.15762098	         31.45514065	         -0.10709948	          0.52129176	          3.17796726	        -14.25577576	        -13.50904277	          6.52882056	          2.51245176	        -13.68184238	         18.68886176	         17.92223610	         48.44075035	         86.51662706	         86.51662706	          0.25122475	          0.26317811	          0.40733982	          0.05000205	          0.05000103	          0.32868088	          0.13361352	          0.05000551	          0.11619771	          0.05000087	          0.05000226	          0.07261524	          0.18245722	          0.26050391	          0.22927948	          0.17198088	          0.05000093	          0.07013889	          0.13490423	          0.05000075	          0.17957882	          0.17603637	          0.05584013	          0.05000258	          0.32192021	          0.05000692	          0.28095492	          0.06025504	          0.19263249	          0.19120508	          0.16872193	          0.06025506	          0.06025508	          0.06025509	          0.06025479	          0.06025426	          0.06025516	          0.58508196	          0.37712604	          0.19557523	          0.41951720	          0.66319856	          0.37256386	          0.05393873	          0.08797786	          0.07531719	          0.10229110	          0.05779639	          0.05558822	          0.14097208	          0.08988837	          0.05789044	          0.05003057	          0.06025601	          0.06025905	          0.05000167	          0.06180510	          0.15557913	          0.26266850	          0.14187550	          0.07019620	          0.08540043	          0.11788217	          0.06702999	          0.06026231	          0.05547438	          0.06025289	          0.06026116	          0.26803287	          0.42034228	          0.06025870	          0.06025557	          0.05000300	          0.16957820	          0.06297771	          0.10518522	          0.08053792	          0.10386872	          0.15581551	          0.05000008	          0.10442643	          0.12500151	          0.13767489	          0.41900086	          0.45682012	          0.32414161	          0.71332718	          0.54697759	          0.35715493	          0.07829793	          0.06025501	          0.05000046	
          1.88283701	         -2.90603881	          1.26087160	         -8.44383915	          2.36718655	          0.85176166	          0.00132947	         30.65788513	          1.88040628	          0.76097660	        -15.84839926	         -2.78278302	          7.88080250	        -17.24113028	        -21.43156093	          7.66249310	        -15.91981635	         -1.85803970	         16.13454348	         -0.01738064	          0.65215289	         -0.16460635	         30.31695477	          0.14033222	          0.33669644	          3.24488492	        -15.53126564	        -13.52144950	          6.57041933	          1.95077927	        -13.76334844	         18.82190864	         17.74229275	         49.61657240	         86.51662706	         86.51662706	          0.33711480	          0.41975039	          0.50405871	          0.15367109	          0.22358863	          0.27274666	          0.11087326	          0.10545078	          0.09642167	          0.07261319	          0.05000230	          0.06025665	          0.15140407	          0.21616953	          0.23471887	          0.18756576	          0.05000077	          0.05820279	          0.11194543	          0.28027369	          0.24474563	          0.20969083	          0.05000026	          0.05000028	          0.26713197	          0.05336208	          0.23314034	          0.05000013	          0.15985963	          0.24412351	          0.20538126	          0.05000006	          0.05000013	          0.05000001	          0.05000002	          0.05000054	          0.05000045	          0.74060707	          0.39281952	          0.19630314	          0.68112471	          0.75638435	          0.55714227	          0.06776879	          0.07671547	          0.06249862	          0.15841590	          0.05000143	          0.05000049	          0.13653445	          0.07459049	          0.05000613	          0.05001044	          0.05000123	          0.05000377	          0.05000076	          0.05540917	          0.12910118	          0.21796425	          0.11772967	          0.05825046	          0.07086653	          0.09781968	          0.05562572	          0.05000690	          0.05000591	          0.05000479	          0.05000602	          0.22241533	          0.41407125	          0.05000318	          0.05000405	          0.05000176	          0.14071692	          0.05226080	          0.08750554	          0.08750585	          0.08619083	          0.12929658	          0.05000011	          0.08665364	          0.10372714	          0.11424348	          0.39065614	          0.37947498	          0.27774034	          0.66158577	          0.73723079	          0.29636937	          0.11922978	          0.05000005	          0.05000018	
